<svg xmlns="http://www.w3.org/2000/svg" viewBox="0 0 31.25 21.98"><defs><style>.cls-1{fill:#a0a0a0;}</style></defs><title>Asset 2</title><g id="Layer_2" data-name="Layer 2"><g id="Layer_1-2" data-name="Layer 1"><path class="cls-1" d="M31.25,2.39V19.6a.59.59,0,0,0,0,.08,2.76,2.76,0,0,1-3,2.3H7.63C6,22,4.38,22,2.76,22A2.64,2.64,0,0,1,.37,20.59a6.5,6.5,0,0,1-.37-1V2.39L0,2.3a2.76,2.76,0,0,1,3-2.3H22.94c1.85,0,3.7,0,5.55,0A2.65,2.65,0,0,1,31,1.64,4.71,4.71,0,0,1,31.25,2.39Zm-3.2-.46L28,1.86H3.24a.54.54,0,0,0,.18.23L14.75,13.46a1.09,1.09,0,0,0,1.75,0q4.07-4.08,8.14-8.17C25.77,4.16,26.91,3.05,28.05,1.93ZM3.18,20.12H28.07l-7.85-7.79-.22.21-2.29,2.29a2.88,2.88,0,0,1-4.17,0l-1.38-1.38L11,12.33ZM1.84,18.74,9.68,11,1.84,3.21Zm27.56,0V3.23L21.57,11Z"/></g></g></svg>