<svg width="800" height="356" viewBox="0 0 800 356" fill="none" xmlns="http://www.w3.org/2000/svg">
<rect opacity="0.1" width="800" height="356" fill="#C4C4C4"/>
<path d="M324.784 105.037C312.039 92.2916 291.986 91.3682 278.123 102.899C278.106 102.913 276.318 104.381 274 104.381C271.623 104.381 269.927 102.942 269.861 102.885C256.014 91.3682 235.961 92.2916 223.216 105.037C216.67 111.583 213.062 120.288 213.062 129.548C213.062 138.808 216.67 147.513 223.091 153.923L263.308 201.006C265.984 204.14 269.882 205.938 274 205.938C278.12 205.938 282.016 204.14 284.692 201.009L324.782 154.061C338.301 140.545 338.301 118.553 324.784 105.037ZM321.346 150.881L281.13 197.964C279.346 200.05 276.747 201.25 274 201.25C271.253 201.25 268.656 200.053 266.87 197.964L226.532 150.745C220.87 145.082 217.75 137.554 217.75 129.548C217.75 121.539 220.87 114.013 226.53 108.351C232.396 102.482 240.055 99.5127 247.734 99.5127C254.474 99.5127 261.229 101.803 266.798 106.434C267.098 106.703 269.859 109.068 274 109.068C278.027 109.068 280.858 106.731 281.137 106.49C293.111 96.5291 310.45 97.3307 321.47 108.351C333.159 120.039 333.159 139.056 321.346 150.881Z" fill="#535353"/>
<path d="M577.094 104.946C564.709 92.5613 545.071 91.8745 531.864 102.86C531.864 102.86 529.406 104.978 526 104.978C522.501 104.978 520.136 102.86 520.136 102.86C506.931 91.8745 487.293 92.5589 474.906 104.946C461.779 118.073 461.779 139.357 474.906 152.482L516.733 201.447C521.598 207.143 530.402 207.143 535.267 201.447L577.094 152.482C590.221 139.354 590.221 118.073 577.094 104.946Z" fill="#535353"/>
<path d="M499.219 245V241.7H491.319V227.275H487.869V245H499.219ZM507.688 245V227.275H504.188V245H507.688ZM525.129 245H529.454L522.379 235L529.404 227.275H524.879L517.779 235.3V227.275H514.329V245H517.779V240.075L519.979 237.65L525.129 245ZM545.141 245V241.75H537.491V237.65H544.416V234.575H537.491V230.525H545.141V227.275H534.041V245H545.141ZM554.469 241.8V230.475H557.244C560.144 230.475 562.544 232.3 562.544 236.15C562.544 240 560.119 241.8 557.219 241.8H554.469ZM557.344 245C562.394 245 566.119 241.75 566.119 236.15C566.119 230.55 562.419 227.275 557.369 227.275H551.019V245H557.344Z" fill="#535353"/>
<path d="M257.6 245V241.7H249.7V227.275H246.25V245H257.6ZM266.069 245V227.275H262.569V245H266.069ZM283.51 245H287.835L280.76 235L287.785 227.275H283.26L276.16 235.3V227.275H272.71V245H276.16V240.075L278.36 237.65L283.51 245ZM303.522 245V241.75H295.872V237.65H302.797V234.575H295.872V230.525H303.522V227.275H292.422V245H303.522Z" fill="#535353"/>
</svg>
